<svg xmlns="http://www.w3.org/2000/svg" viewBox="0 0 595.3 841.9"><path fill="#31292B" d="M448.8 751h-26c-1.7 0-3 1.3-3 3v14c0 1.7 1.3 3 3 3h26c1.7 0 3-1.3 3-3v-14c0-1.6-1.3-3-3-3zm-14.6 15.9c-.5.1-1.1.2-1.7.2-.7 0-1.4-.1-2-.3-.6-.2-1.2-.6-1.6-1-.5-.5-.9-1.1-1.1-1.9-.3-.8-.4-1.7-.4-2.8 0-1.1.2-2.1.5-2.9.3-.8.7-1.4 1.2-1.9s1.1-.8 1.7-1c.6-.2 1.2-.3 1.9-.3s1.2 0 1.7.1.8.2 1.1.3l-.4 1.9-.9-.3c-.3-.1-.8-.1-1.3-.1-.9 0-1.6.3-2.2 1-.6.7-.8 1.7-.8 3 0 .6.1 1.1.2 1.6s.3.9.6 1.3c.3.3.6.6 1 .8.4.2.9.3 1.4.3.5 0 .9 0 1.3-.1.3-.1.6-.2.9-.4l.5 1.8c-.6.4-1 .5-1.6.7zm8.7 0c-.5.1-1.1.2-1.7.2-.7 0-1.4-.1-2-.3-.6-.2-1.2-.6-1.6-1-.5-.5-.9-1.1-1.1-1.9-.3-.8-.4-1.7-.4-2.8 0-1.1.2-2.1.5-2.9.3-.8.7-1.4 1.2-1.9s1.1-.8 1.7-1c.6-.2 1.2-.3 1.9-.3s1.2 0 1.7.1.8.2 1.1.3l-.4 1.9-.9-.3c-.3-.1-.8-.1-1.3-.1-.9 0-1.6.3-2.2 1-.6.7-.8 1.7-.8 3 0 .6.1 1.1.2 1.6s.3.9.6 1.3c.3.3.6.6 1 .8.4.2.9.3 1.4.3.5 0 .9 0 1.3-.1.3-.1.6-.2.9-.4l.5 1.8c-.6.4-1 .5-1.6.7z"/></svg>